HIERARCHY
ROOT Hips
{
	OFFSET 42.269901 -9.027307 100.178001
	CHANNELS 6 Xposition Yposition Zposition Xrotation Yrotation Zrotation
	JOINT spine
	{
		OFFSET 0.000000 -0.507026 8.817047
		CHANNELS 3 Xrotation Yrotation Zrotation
		JOINT spine1
		{
			OFFSET 0.000000 -0.000001 10.776604
			CHANNELS 3 Xrotation Yrotation Zrotation
			JOINT spine2
			{
				OFFSET 0.000000 -0.000002 10.325897
				CHANNELS 3 Xrotation Yrotation Zrotation
				JOINT Neck
				{
					OFFSET 0.000000 -1.263955 26.511002
					CHANNELS 3 Xrotation Yrotation Zrotation
					JOINT Head
					{
						OFFSET 0.000000 -0.000001 8.009659
						CHANNELS 3 Xrotation Yrotation Zrotation
						End Site
						{
							OFFSET 0.000000 6.393857 19.387894
						}
					}
				}
				JOINT RightShoulder
				{
					OFFSET -4.347950 0.605420 11.151199
					CHANNELS 3 Xrotation Yrotation Zrotation
					JOINT RightArm
					{
						OFFSET 0.000000 -0.000003 14.625793
						CHANNELS 3 Xrotation Yrotation Zrotation
						JOINT RightArmRoll
						{
							OFFSET 0.000000 -0.000001 7.383392
							CHANNELS 3 Xrotation Yrotation Zrotation
							JOINT RightForeArm
							{
								OFFSET 0.000000 -0.000004 21.505203
								CHANNELS 3 Xrotation Yrotation Zrotation
								JOINT RightForeArmRoll
								{
									OFFSET 0.000000 -0.000001 8.285324
									CHANNELS 3 Xrotation Yrotation Zrotation
									JOINT RightHand
									{
										OFFSET 0.000000 -0.000003 16.626801
										CHANNELS 3 Xrotation Yrotation Zrotation
										End Site
										{
											OFFSET 0.000000 0.000000 0.100006
										}
									}
								}
							}
						}
					}
				}
				JOINT LeftShoulder
				{
					OFFSET 4.347950 0.605420 11.151199
					CHANNELS 3 Xrotation Yrotation Zrotation
					JOINT LeftArm
					{
						OFFSET 0.000000 -0.000003 14.625793
						CHANNELS 3 Xrotation Yrotation Zrotation
						JOINT LeftArmRoll
						{
							OFFSET 0.000000 -0.000001 7.383392
							CHANNELS 3 Xrotation Yrotation Zrotation
							JOINT LeftForeArm
							{
								OFFSET 0.000000 -0.000004 21.505203
								CHANNELS 3 Xrotation Yrotation Zrotation
								JOINT LeftForeArmRoll
								{
									OFFSET 0.000000 -0.000001 8.285324
									CHANNELS 3 Xrotation Yrotation Zrotation
									JOINT LeftHand
									{
										OFFSET 0.000000 -0.000003 16.626801
										CHANNELS 3 Xrotation Yrotation Zrotation
										End Site
										{
											OFFSET 0.000000 0.000000 0.100006
										}
									}
								}
							}
						}
					}
				}
			}
		}
	}
	JOINT RightUpLeg
	{
		OFFSET -7.815102 1.202170 -1.433090
		CHANNELS 3 Xrotation Yrotation Zrotation
		JOINT RightUpLegRoll
		{
			OFFSET 0.000000 -0.000003 19.495903
			CHANNELS 3 Xrotation Yrotation Zrotation
			JOINT RightLeg
			{
				OFFSET 0.000000 0.000004 -24.142700
				CHANNELS 3 Xrotation Yrotation Zrotation
				JOINT RightLegRoll
				{
					OFFSET 0.000000 -0.000004 24.221703
					CHANNELS 3 Xrotation Yrotation Zrotation
					JOINT RightFoot
					{
						OFFSET 0.000000 -0.000003 20.160500
						CHANNELS 3 Xrotation Yrotation Zrotation
						JOINT RightToeBase
						{
							OFFSET 0.000000 -0.000003 16.853195
							CHANNELS 3 Xrotation Yrotation Zrotation
							End Site
							{
								OFFSET 0.007145 0.940780 8.161865
							}
						}
					}
				}
			}
		}
	}
	JOINT LeftUpLeg
	{
		OFFSET 7.815102 1.202170 -1.433090
		CHANNELS 3 Xrotation Yrotation Zrotation
		JOINT LeftUpLegRoll
		{
			OFFSET 0.000000 -0.000003 19.496002
			CHANNELS 3 Xrotation Yrotation Zrotation
			JOINT LeftLeg
			{
				OFFSET 0.000000 -0.000004 24.142601
				CHANNELS 3 Xrotation Yrotation Zrotation
				JOINT LeftLegRoll
				{
					OFFSET 0.000000 -0.000004 24.445602
					CHANNELS 3 Xrotation Yrotation Zrotation
					JOINT LeftFoot
					{
						OFFSET 0.000000 -0.000003 19.936600
						CHANNELS 3 Xrotation Yrotation Zrotation
						JOINT LeftToeBase
						{
							OFFSET 0.000000 -0.000003 16.853195
							CHANNELS 3 Xrotation Yrotation Zrotation
							End Site
							{
								OFFSET -0.032013 0.940779 8.161865
							}
						}
					}
				}
			}
		}
	}
}
MOTION
Frames: 4
Frame Time: 0.041667
48.548195 -7.122719 99.787598 0.073883 -2.514824 61.785242 -2.602853 0.642847 1.001506 -1.213749 1.249399 2.016657 0.431078 1.273544 2.001558 2.581260 32.619590 3.216129 2.026272 -20.300039 2.290344 4.765467 -26.819733 11.565545 103.141375 -2.469740 120.447927 -0.000042 -0.000007 -0.000002 30.792371 1.391546 -1.688347 0.000009 0.000019 -3.008249 -4.999682 -7.999385 -0.000073 -42.168782 66.541424 48.618793 103.240474 73.063988 -114.483888 0.000003 -0.000003 -0.000003 9.409777 10.950626 -0.288027 -0.000005 -0.000017 3.000001 -4.999670 7.999377 0.000210 6.483372 -176.926734 1.401348 -179.999991 0.000005 -1.221998 164.560431 -0.561969 -0.596201 -0.000001 -0.000001 0.711333 77.691496 6.589778 2.389937 29.347455 -7.193406 2.662031 -10.583376 179.573391 3.371890 -0.000005 -0.000004 -1.113967 -15.977505 3.342417 0.911996 -0.000002 -0.000001 -0.337349 73.371750 -6.833527 -1.966785 25.456947 7.355613 -0.000010 
48.573696 -7.122338 99.786690 0.080199 -2.501677 61.826196 -2.598404 0.643578 0.998407 -1.204817 1.250953 2.011087 0.440010 1.275042 1.995961 2.482662 32.806099 3.241242 2.049102 -20.471887 2.292144 4.889173 -26.763640 11.751399 103.426829 -2.611284 120.605021 -0.000042 -0.000007 -0.000004 30.635075 1.346954 -1.677955 0.000009 0.000017 -3.008250 -4.999683 -7.999387 -0.000073 -42.337935 66.586210 48.802053 103.039735 73.058907 -114.291796 0.000002 -0.000003 -0.000003 9.417227 10.953851 -0.288855 -0.000006 -0.000018 3.000000 -4.999673 7.999377 0.000210 6.477273 -176.939616 1.394477 -179.999991 0.000005 -1.221997 164.556333 -0.561959 -0.597240 -0.000000 -0.000002 0.711227 77.689406 6.589483 2.390627 29.377719 -7.192677 2.654242 -10.621285 179.566548 3.363354 -0.000006 -0.000004 -1.113699 -16.008398 3.350633 0.914315 -0.000002 -0.000001 -0.337097 73.375042 -6.834978 -1.962298 25.456948 7.355610 -0.000009 
48.576195 -7.124099 99.775993 0.086331 -2.488416 61.865641 -2.593935 0.644125 0.995258 -1.195875 1.252137 2.005438 0.448957 1.276170 1.990287 2.384657 32.992529 3.267322 2.070882 -20.642051 2.294332 5.014929 -26.711365 11.938986 103.712304 -2.753966 120.769096 -0.000042 -0.000007 0.000000 30.484531 1.303894 -1.667517 0.000012 0.000018 -3.008250 -4.999684 -7.999387 -0.000077 -42.507430 66.630490 48.985591 102.842452 73.054822 -114.103802 0.000006 -0.000003 -0.000003 9.424098 10.956700 -0.289588 -0.000006 -0.000017 3.000001 -4.999672 7.999377 0.000210 6.470863 -176.951500 1.387653 -179.999991 0.000005 -1.221997 164.551524 -0.562906 -0.598550 -0.000001 -0.000001 0.711150 77.688013 6.589206 2.391378 29.407270 -7.191990 2.646510 -10.659496 179.559731 3.354494 -0.000005 -0.000004 -1.113440 -16.040499 3.359035 0.916730 -0.000002 -0.000001 -0.336854 73.378662 -6.836429 -1.957789 25.456948 7.355607 -0.000009 
48.570297 -7.127625 99.765404 0.092276 -2.475036 61.903685 -2.589475 0.644539 0.992131 -1.186924 1.253061 1.999852 0.457906 1.277029 1.984682 2.287096 33.177480 3.294293 2.091800 -20.809611 2.296837 5.141877 -26.664340 12.126805 103.997082 -2.897220 120.937843 -0.000042 -0.000007 0.000000 30.338635 1.261840 -1.656995 0.000011 0.000018 -3.008253 -4.999683 -7.999387 -0.000072 -42.675288 66.673814 49.167376 102.651398 73.051762 -113.922672 0.000002 -0.000002 -0.000003 9.430212 10.959080 -0.290199 -0.000008 -0.000017 3.000000 -4.999670 7.999378 0.000210 6.464123 -176.964396 1.380594 -179.999991 0.000005 -1.221997 164.546333 -0.562893 -0.599598 -0.000002 -0.000002 0.711121 77.687302 6.588950 2.391990 29.436121 -7.191312 2.638859 -10.697812 179.551917 3.345566 -0.000005 -0.000005 -1.113199 -16.073204 3.367557 0.919195 -0.000002 -0.000001 -0.336629 73.382596 -6.837856 -1.953258 25.456950 7.355617 -0.000011 
